<svg width="19" height="21" viewBox="0 0 19 21" fill="none" xmlns="http://www.w3.org/2000/svg">
<path fill-rule="evenodd" clip-rule="evenodd" d="M13.5473 0.743865V1.77876C16.5581 2.07065 18.0983 3.73355 18.0983 6.72324V14.9935C18.0983 18.3193 16.2013 20.0088 12.4683 20.0088H5.71588C1.98289 20.0088 0.0859375 18.3193 0.0859375 14.9935V6.72324C0.0859375 4.73307 0.764663 3.30898 2.15692 2.47753C2.37639 2.32783 2.66033 2.31738 2.88987 2.45055C3.11942 2.58373 3.25497 2.83755 3.23979 3.10577C3.22461 3.37399 3.0613 3.61034 2.81824 3.71586C1.89587 4.26427 1.46079 5.21955 1.46079 6.72324V6.9886H14.1564C14.5361 6.9886 14.8439 7.30145 14.8439 7.68738C14.8439 8.0733 14.5361 8.38615 14.1564 8.38615H1.46079V14.9935C1.46079 17.5321 2.69642 18.5847 5.71588 18.6024H12.4683C15.4443 18.6024 16.7147 17.5233 16.7147 14.9847V6.7144C16.7147 4.50309 15.7488 3.43282 13.5473 3.1763V3.84854C13.4966 4.20685 13.1879 4.46843 12.8321 4.45478C12.4762 4.44112 12.1878 4.15665 12.1638 3.79547V0.681948C12.1705 0.494972 12.2508 0.318556 12.3865 0.192202C12.5223 0.0658479 12.7022 0.000110977 12.886 0.00971025C13.265 0.0333999 13.5574 0.358021 13.5473 0.743865ZM5.79862 4.30158C5.66782 4.43288 5.49072 4.50546 5.3069 4.50309C4.93065 4.49344 4.632 4.17802 4.63688 3.79547V0.743865C4.67644 0.385875 4.97427 0.115237 5.32866 0.115237C5.68305 0.115237 5.98088 0.385875 6.02043 0.743865V1.708H9.95356C10.3332 1.708 10.641 2.02085 10.641 2.40677C10.641 2.79269 10.3332 3.10554 9.95356 3.10554H6.00303V3.80432C6.00305 3.99119 5.92943 4.17028 5.79862 4.30158ZM13.2863 10.624C12.8057 10.624 12.4161 11.02 12.4161 11.5085C12.4161 11.997 12.8057 12.393 13.2863 12.393C13.7669 12.393 14.1564 11.997 14.1564 11.5085C14.1565 11.2724 14.0636 11.0461 13.8985 10.8799C13.7334 10.7138 13.5099 10.6216 13.2776 10.624H13.2863ZM8.23935 11.5085C8.23935 11.02 8.62893 10.624 9.10951 10.624C9.59008 10.624 9.97967 11.02 9.97967 11.5085C9.97967 11.997 9.59008 12.393 9.10951 12.393C8.62893 12.393 8.23935 11.997 8.23935 11.5085ZM4.94144 10.624C4.46086 10.624 4.07127 11.02 4.07127 11.5085C4.07127 11.997 4.46086 12.393 4.94144 12.393C5.42201 12.393 5.8116 11.997 5.8116 11.5085C5.81161 11.2724 5.71874 11.0461 5.55366 10.8799C5.38859 10.7138 5.16502 10.6216 4.93273 10.624H4.94144ZM12.4161 15.0908C12.4161 14.6023 12.8057 14.2063 13.2863 14.2063H13.2776C13.5099 14.204 13.7334 14.2961 13.8985 14.4622C14.0636 14.6284 14.1565 14.8547 14.1564 15.0908C14.1564 15.5793 13.7669 15.9754 13.2863 15.9754C12.8057 15.9754 12.4161 15.5793 12.4161 15.0908ZM9.10951 14.2063C8.62893 14.2063 8.23935 14.6023 8.23935 15.0908C8.23935 15.5793 8.62893 15.9754 9.10951 15.9754C9.59008 15.9754 9.97967 15.5793 9.97967 15.0908C9.97967 14.6023 9.59008 14.2063 9.10951 14.2063ZM4.07127 15.0908C4.07127 14.6023 4.46086 14.2063 4.94144 14.2063H4.93273C5.16502 14.204 5.38859 14.2961 5.55366 14.4622C5.71874 14.6284 5.81161 14.8547 5.8116 15.0908C5.8116 15.5793 5.42201 15.9754 4.94144 15.9754C4.46086 15.9754 4.07127 15.5793 4.07127 15.0908Z" fill="#616164"/>
</svg>
