<svg width="18" height="16" viewBox="0 0 18 16" fill="none" xmlns="http://www.w3.org/2000/svg">
<path d="M16.667 0.802734H1.33366C0.964909 0.802734 0.666992 1.07341 0.666992 1.40844V15.3397C0.666992 15.6747 0.964909 15.9454 1.33366 15.9454H16.667C17.0357 15.9454 17.3337 15.6747 17.3337 15.3397V1.40844C17.3337 1.07341 17.0357 0.802734 16.667 0.802734ZM14.742 5.22249H13.4107C12.367 5.22249 12.1649 5.67299 12.1649 6.33548V7.79485H14.6566L14.3316 10.0795H12.1649V15.9454H9.56699V10.0814H7.39407V7.79485H9.56699V6.11023C9.56699 4.15494 10.8816 3.08927 12.8024 3.08927C13.7232 3.08927 14.5128 3.15174 14.7441 3.18013V5.22249H14.742Z" fill="#AAAAAA"/>
</svg>
