<svg width="18" height="16" viewBox="0 0 18 16" fill="none" xmlns="http://www.w3.org/2000/svg">
<path d="M8.99922 5.84921C7.46902 5.84921 6.22026 6.98378 6.22026 8.37406C6.22026 9.76433 7.46902 10.8989 8.99922 10.8989C10.5294 10.8989 11.7782 9.76433 11.7782 8.37406C11.7782 6.98378 10.5294 5.84921 8.99922 5.84921ZM17.334 8.37406C17.334 7.32851 17.3444 6.29243 17.2798 5.24878C17.2152 4.03654 16.9108 2.96069 15.9352 2.07425C14.9574 1.18591 13.7754 0.911262 12.4411 0.852545C11.2903 0.793827 10.15 0.803298 9.0013 0.803298C7.85052 0.803298 6.71017 0.793827 5.56148 0.852545C4.22724 0.911262 3.04311 1.1878 2.06745 2.07425C1.08971 2.96258 0.787419 4.03654 0.722792 5.24878C0.658165 6.29432 0.668589 7.3304 0.668589 8.37406C0.668589 9.41771 0.658165 10.4557 0.722792 11.4993C0.787419 12.7116 1.09179 13.7874 2.06745 14.6739C3.04519 15.5622 4.22724 15.8369 5.56148 15.8956C6.71226 15.9543 7.85261 15.9448 9.0013 15.9448C10.1521 15.9448 11.2924 15.9543 12.4411 15.8956C13.7754 15.8369 14.9595 15.5603 15.9352 14.6739C16.9129 13.7855 17.2152 12.7116 17.2798 11.4993C17.3465 10.4557 17.334 9.41961 17.334 8.37406ZM8.99922 12.2589C6.63303 12.2589 4.72341 10.5239 4.72341 8.37406C4.72341 6.22424 6.63303 4.48924 8.99922 4.48924C11.3654 4.48924 13.275 6.22424 13.275 8.37406C13.275 10.5239 11.3654 12.2589 8.99922 12.2589ZM13.4501 5.23741C12.8977 5.23741 12.4515 4.83207 12.4515 4.33013C12.4515 3.82819 12.8977 3.42285 13.4501 3.42285C14.0026 3.42285 14.4487 3.82819 14.4487 4.33013C14.4489 4.44932 14.4232 4.56737 14.3731 4.67751C14.3229 4.78765 14.2494 4.88773 14.1566 4.97201C14.0639 5.05629 13.9537 5.12311 13.8325 5.16865C13.7113 5.21419 13.5813 5.23756 13.4501 5.23741Z" fill="#AAAAAA"/>
</svg>
