<svg width="23" height="21" viewBox="0 0 23 21" fill="none" xmlns="http://www.w3.org/2000/svg">
<path fill-rule="evenodd" clip-rule="evenodd" d="M5.83777 6.00912C5.83777 10.4536 11.1748 14.4536 11.1748 14.4536C11.1748 14.4536 16.5117 10.4536 16.5117 6.00912C16.5117 3.0636 14.1223 0.675781 11.1748 0.675781C8.22722 0.675781 5.83777 3.0636 5.83777 6.00912ZM11.161 15.999C11.1555 15.9951 11.1484 15.9901 11.1397 15.984C10.8715 15.7956 9.11128 14.5591 7.47122 12.6758H5.1856C4.73808 12.6758 4.32036 12.9 4.07323 13.2728L0.53828 18.6062C0.393574 18.8245 0.316406 19.0806 0.316406 19.3425C0.316406 20.0788 0.913769 20.6758 1.65065 20.6758H20.6838C20.9482 20.6758 21.2065 20.5973 21.4262 20.4503C22.0385 20.0406 22.2025 19.2125 21.7925 18.6006L18.2188 13.2673C17.9712 12.8976 17.5553 12.6758 17.1102 12.6758H14.8783C13.2382 14.5591 11.4781 15.7956 11.2098 15.984C11.1861 16.0007 11.174 16.0091 11.1748 16.0091C11.1752 16.0091 11.1705 16.0057 11.161 15.999ZM5.83777 19.3425V18.0091H16.5117V19.3425H5.83777ZM11.1748 8.00912C12.2801 8.00912 13.1761 7.11369 13.1761 6.00912C13.1761 4.90455 12.2801 4.00912 11.1748 4.00912C10.0694 4.00912 9.17339 4.90455 9.17339 6.00912C9.17339 7.11369 10.0694 8.00912 11.1748 8.00912Z" fill="#616164"/>
</svg>
