<svg width="21" height="20" viewBox="0 0 21 20" fill="none" xmlns="http://www.w3.org/2000/svg">
<path d="M17.1733 7.48144C16.1521 4.7192 13.5086 2.74521 10.3981 2.74521C7.30104 2.74521 4.66427 4.70134 3.63638 7.44571C3.58275 7.38542 3.52689 7.32737 3.46656 7.27601C4.04977 3.93095 6.9301 1.38754 10.4026 1.38754C13.8594 1.38754 16.7308 3.90638 17.3342 7.22688C17.2716 7.30727 17.218 7.39212 17.1733 7.48144ZM18.6168 6.57707C18.6034 6.57707 18.5922 6.5793 18.5788 6.5793C17.7096 2.81667 14.3846 0.00976562 10.4004 0.00976562C6.30667 0.00976562 2.90568 2.97298 2.15264 6.89193C1.40407 7.03037 0.858839 7.68465 0.863309 8.44611V11.5612C0.863309 12.4343 1.56496 13.1421 2.42973 13.1421C2.91686 13.1421 3.34812 12.9121 3.63415 12.5593C4.32686 14.3837 5.72568 15.8575 7.51779 16.639C7.54014 16.5944 7.56695 16.552 7.596 16.5118C7.62505 16.476 7.65633 16.4448 7.68315 16.4448C7.70996 16.4448 7.73678 16.4537 7.75912 16.4693C7.34573 16.1612 5.85529 14.5847 5.53128 12.3807C5.3905 11.4116 6.11673 10.4581 6.96362 10.3017C8.32223 10.0494 9.67413 9.76135 11.0327 9.51349C11.8975 9.35718 12.4874 8.88155 12.8472 8.09329C12.9321 7.90795 13.055 7.53504 13.1109 6.99911C13.1243 6.91872 13.1935 6.85843 13.2762 6.85843C13.3298 6.85843 13.379 6.88523 13.4103 6.92765L13.4483 6.90532C13.9846 7.68241 15.046 9.40407 15.1979 11.2173C15.3722 13.2918 15.2761 14.712 13.6874 16.1656L13.6807 16.1723C13.6583 16.1969 13.6449 16.2282 13.6449 16.2617C13.6449 16.3041 13.6673 16.3443 13.703 16.3666C13.7164 16.3711 13.7298 16.38 13.7432 16.3845C13.7544 16.3867 13.7633 16.389 13.7745 16.3912C13.7857 16.3912 13.7946 16.389 13.8036 16.3845C13.8259 16.3733 13.8483 16.3599 13.8706 16.3465C15.4929 15.4511 16.713 13.9706 17.2783 12.2065C17.5143 12.5541 17.8767 12.796 18.2883 12.8809C17.6179 15.9379 14.8873 17.8538 11.5065 18.1419C11.2919 17.6193 10.7825 17.2799 10.2194 17.2822C9.45514 17.2822 8.83394 17.8873 8.83394 18.6331C8.83394 19.379 9.45514 19.9841 10.2194 19.9841C10.8137 19.9863 11.3433 19.6067 11.531 19.044C15.4437 18.7269 18.581 16.4023 19.2358 12.7916C19.8324 12.5459 20.2212 11.9653 20.2212 11.32V8.17368C20.2257 7.29164 19.5061 6.57707 18.6168 6.57707Z" fill="#616164"/>
</svg>
