<svg width="18" height="12" viewBox="0 0 18 12" fill="none" xmlns="http://www.w3.org/2000/svg">
<path d="M16.9858 1.84781C16.8909 1.50427 16.7049 1.19099 16.4464 0.939313C16.1878 0.687636 15.8658 0.50639 15.5126 0.413717C14.2124 0.0737305 9.00032 0.0737305 9.00032 0.0737305C9.00032 0.0737305 3.78827 0.0737304 2.48805 0.411908C2.13466 0.504281 1.8125 0.685426 1.55391 0.93715C1.29532 1.18887 1.1094 1.50232 1.01483 1.846C0.666992 3.1119 0.666992 5.75222 0.666992 5.75222C0.666992 5.75222 0.666992 8.39254 1.01483 9.65664C1.20643 10.3547 1.7719 10.9045 2.48805 11.0907C3.78827 11.4307 9.00032 11.4307 9.00032 11.4307C9.00032 11.4307 14.2124 11.4307 15.5126 11.0907C16.2306 10.9045 16.7942 10.3547 16.9858 9.65664C17.3337 8.39254 17.3337 5.75222 17.3337 5.75222C17.3337 5.75222 17.3337 3.11191 16.9858 1.84781ZM7.34482 8.17553V3.32892L11.6603 5.73414L7.34482 8.17553Z" fill="#AAAAAA"/>
</svg>
